<svg width="56" height="56" viewBox="0 0 56 56" fill="none" xmlns="http://www.w3.org/2000/svg">
<rect width="56" height="56" rx="14" fill="#E5E6EB"/>
<rect x="0.25" y="0.25" width="55.5" height="55.5" rx="13.75" stroke="#1F2329" stroke-opacity="0.2" stroke-width="0.5"/>
<g filter="url(#filter0_d_67_347)">
<path d="M46.446 8L42.01 12.4361L37.5739 16.8721L28.7018 25.7443V21.3082L28.7018 16.8721V13.0275L30.9198 10.218L33.8772 8L37.5739 8L41.8621 8H46.446Z" fill="#0E42D2"/>
<circle cx="33.8771" cy="13.1754" r="5.17541" transform="rotate(90 33.8771 13.1754)" fill="#0E42D2"/>
<path d="M27.1316 25.8196C27.1316 25.8196 26.9942 13.9773 27.0098 13.5352C27.0255 13.0931 27.0939 12.4361 27.0939 12.4361L26.5297 13.038L20.4586 19.1466L27.1316 25.8196Z" fill="#165DFF"/>
<path d="M8 9.4787L12.4361 13.9148L16.8721 18.3508L25.7443 27.223H21.3082H16.8721L13.0275 27.223L10.218 25.0049L8 22.0476L8 18.3508L8 14.0626V9.4787Z" fill="#4080FF"/>
<circle cx="13.1754" cy="22.0475" r="5.17541" fill="#4080FF"/>
<path d="M25.8196 28.7931C25.8196 28.7931 13.9773 28.9305 13.5351 28.9149C13.093 28.8992 12.436 28.8308 12.436 28.8308L13.0379 29.395L19.1466 35.4661L25.8196 28.7931Z" fill="#6AA1FF"/>
<path d="M48 46.653L43.5639 42.2169L39.1279 37.7808L30.2557 28.9087L34.6918 28.9087H39.1279H42.9725L45.782 31.1267L48 34.0841V37.7808V42.069L48 46.653Z" fill="#E8F3FF"/>
<circle cx="42.8246" cy="34.084" r="5.17541" transform="rotate(-180 42.8246 34.084)" fill="#E8F3FF"/>
<path d="M30.1804 27.3386C30.1804 27.3386 42.0227 27.2012 42.4649 27.2169C42.907 27.2325 43.564 27.3009 43.564 27.3009L42.9621 26.7367L36.8534 20.6656L30.1804 27.3386Z" fill="white"/>
<path d="M9.33081 48L13.7669 43.5639L18.2029 39.1279L27.0751 30.2557L27.0751 34.6918V39.1279L27.0751 42.9725L24.8571 45.782L21.8997 48H18.2029H13.9147L9.33081 48Z" fill="#94BFFF"/>
<circle cx="21.8998" cy="42.8246" r="5.17541" transform="rotate(-90 21.8998 42.8246)" fill="#94BFFF"/>
<path d="M28.645 30.1804C28.645 30.1804 28.7824 42.0227 28.7668 42.4648C28.7511 42.9069 28.6827 43.5639 28.6827 43.5639L29.2469 42.962L35.318 36.8534L28.645 30.1804Z" fill="#BEDAFF"/>
<path d="M27.9033 19.5338C28.165 19.5338 28.3809 19.7385 28.414 20.0014C28.4962 20.6558 28.6482 21.2883 28.8627 21.8904L29.1621 22.6254C30.0363 24.5252 31.5526 26.0607 33.4281 26.946L34.1537 27.2498L34.3904 27.3321C34.9469 27.5173 35.5278 27.6479 36.1271 27.7175C36.3255 27.7405 36.4797 27.9079 36.4797 28.1102L36.4724 28.1845C36.4401 28.3521 36.3006 28.4827 36.1271 28.5028L36.0346 28.5145C35.3828 28.5973 34.7531 28.7516 34.1537 28.9705L33.4281 29.2743C31.5526 30.1596 30.0363 31.6951 29.1621 33.5949L28.8627 34.3299C28.6482 34.932 28.4962 35.5645 28.414 36.2189L28.3936 36.3143C28.3266 36.5298 28.1324 36.6866 27.9033 36.6866L27.8079 36.6771C27.6216 36.6405 27.4705 36.4991 27.413 36.3143L27.3926 36.2189C27.3104 35.5645 27.1584 34.932 26.9439 34.3299L26.6445 33.5949C25.7704 31.6951 24.254 30.1596 22.3785 29.2743L21.6529 28.9705C21.1037 28.7699 20.529 28.6232 19.9352 28.5363L19.6795 28.5028C19.4811 28.4798 19.3269 28.3124 19.3269 28.1102C19.3269 27.9079 19.4811 27.7405 19.6795 27.7175C20.2788 27.6479 20.8597 27.5173 21.4162 27.3321L21.6529 27.2498L22.3785 26.946C24.254 26.0607 25.7704 24.5252 26.6445 22.6254L26.9439 21.8904C27.1584 21.2883 27.3104 20.6558 27.3926 20.0014C27.4257 19.7385 27.6416 19.5338 27.9033 19.5338Z" fill="#E5E6EB"/>
</g>
<defs>
<filter id="filter0_d_67_347" x="4" y="6" width="48" height="48" filterUnits="userSpaceOnUse" color-interpolation-filters="sRGB">
<feFlood flood-opacity="0" result="BackgroundImageFix"/>
<feColorMatrix in="SourceAlpha" type="matrix" values="0 0 0 0 0 0 0 0 0 0 0 0 0 0 0 0 0 0 127 0" result="hardAlpha"/>
<feOffset dy="2"/>
<feGaussianBlur stdDeviation="2"/>
<feComposite in2="hardAlpha" operator="out"/>
<feColorMatrix type="matrix" values="0 0 0 0 0 0 0 0 0 0 0 0 0 0 0 0 0 0 0.1 0"/>
<feBlend mode="normal" in2="BackgroundImageFix" result="effect1_dropShadow_67_347"/>
<feBlend mode="normal" in="SourceGraphic" in2="effect1_dropShadow_67_347" result="shape"/>
</filter>
</defs>
</svg>
