<svg width="56" height="56" viewBox="0 0 56 56" fill="none" xmlns="http://www.w3.org/2000/svg">
<rect width="56" height="56" rx="14" fill="#1E1E1E" fill-opacity="0.6"/>
<rect x="0.25" y="0.25" width="55.5" height="55.5" rx="13.75" stroke="#1F2329" stroke-opacity="0.2" stroke-width="0.5"/>
<g filter="url(#filter1_d_75_701)">
<mask id="mask0_75_701" style="mask-type:alpha" maskUnits="userSpaceOnUse" x="8" y="8" width="40" height="40">
<path d="M48 48H8V8H48V48ZM28 18C27.695 18 27.443 18.2385 27.4043 18.5449C27.3084 19.3079 27.1309 20.0461 26.8809 20.748L26.5322 21.6045C25.5131 23.8194 23.7452 25.6102 21.5586 26.6426L20.7119 26.9971L20.4365 27.0928C19.7877 27.3087 19.1099 27.4608 18.4111 27.542C18.1798 27.5689 18 27.7642 18 28C18 28.2358 18.1798 28.4311 18.4111 28.458L18.709 28.4971C19.4013 28.5984 20.0716 28.7691 20.7119 29.0029L21.5586 29.3574C23.7452 30.3898 25.5131 32.1806 26.5322 34.3955L26.8809 35.252C27.1309 35.9539 27.3084 36.6921 27.4043 37.4551L27.4287 37.5664C27.4958 37.7816 27.6717 37.9466 27.8887 37.9893L28 38C28.2669 38 28.493 37.8174 28.5713 37.5664L28.5957 37.4551C28.6916 36.6921 28.8691 35.9539 29.1191 35.252L29.4678 34.3955C30.4869 32.1806 32.2548 30.3898 34.4414 29.3574L35.2881 29.0029C35.9869 28.7477 36.7216 28.5682 37.4814 28.4717L37.5889 28.458C37.791 28.4345 37.9534 28.2822 37.9912 28.0869L38 28C38 27.7642 37.8202 27.5689 37.5889 27.542C36.8901 27.4608 36.2123 27.3087 35.5635 27.0928L35.2881 26.9971L34.4414 26.6426C32.2548 25.6102 30.4869 23.8194 29.4678 21.6045L29.1191 20.748C28.8691 20.0461 28.6916 19.3079 28.5957 18.5449C28.557 18.2385 28.305 18 28 18Z" fill="#D9D9D9"/>
</mask>
<g mask="url(#mask0_75_701)">
<path d="M29.25 26.75V13C29.25 10.2386 31.4886 8 34.25 8H48L29.25 26.75Z" fill="#0E42D2" fill-opacity="0.9"/>
<path d="M30.5 26.7479C30.5 26.7479 44.5773 26.6241 45.103 26.6442C45.6286 26.6643 46.4099 26.7479 46.4099 26.7479L45.6925 26.0751L38.4103 18.8375L30.5 26.7479Z" fill="#C9CDD4" fill-opacity="0.9"/>
<path d="M29.25 29.25L43 29.25C45.7614 29.25 48 31.4886 48 34.25L48 48L29.25 29.25Z" fill="#E8F3FF" fill-opacity="0.9"/>
<path d="M29.252 30.5C29.252 30.5 29.3757 44.5773 29.3556 45.103C29.3355 45.6286 29.252 46.4099 29.252 46.4099L29.9247 45.6925L37.1624 38.4103L29.252 30.5Z" fill="#BEDAFF" fill-opacity="0.9"/>
<path d="M26.75 29.25L26.75 43C26.75 45.7614 24.5114 48 21.75 48H8L26.75 29.25Z" fill="#94BFFF" fill-opacity="0.9"/>
<path d="M25.5 29.2521C25.5 29.2521 11.4227 29.3759 10.897 29.3558C10.3714 29.3357 9.59011 29.2521 9.59011 29.2521L10.3075 29.9249L17.5897 37.1625L25.5 29.2521Z" fill="#6AA1FF" fill-opacity="0.9"/>
<path d="M26.75 26.75H13C10.2386 26.75 8 24.5114 8 21.75L8 8L26.75 26.75Z" fill="#4080FF" fill-opacity="0.9"/>
<path d="M26.748 25.5C26.748 25.5 26.6243 11.4227 26.6444 10.897C26.6645 10.3714 26.748 9.59011 26.748 9.59011L26.0753 10.3075L18.8376 17.5897L26.748 25.5Z" fill="#165DFF" fill-opacity="0.9"/>
</g>
</g>
<defs>
<filter id="filter1_d_75_701" x="4" y="8" width="48" height="48" filterUnits="userSpaceOnUse" color-interpolation-filters="sRGB">
<feFlood flood-opacity="0" result="BackgroundImageFix"/>
<feColorMatrix in="SourceAlpha" type="matrix" values="0 0 0 0 0 0 0 0 0 0 0 0 0 0 0 0 0 0 127 0" result="hardAlpha"/>
<feOffset dy="4"/>
<feGaussianBlur stdDeviation="2"/>
<feComposite in2="hardAlpha" operator="out"/>
<feColorMatrix type="matrix" values="0 0 0 0 0 0 0 0 0 0 0 0 0 0 0 0 0 0 0.25 0"/>
<feBlend mode="normal" in2="BackgroundImageFix" result="effect1_dropShadow_75_701"/>
<feBlend mode="normal" in="BackgroundImageFix" in2="effect1_dropShadow_75_701" result="BackgroundImageFix"/>
<feBlend mode="normal" in="SourceGraphic" in2="BackgroundImageFix" result="shape"/>
</filter>
</defs>
</svg>
