<svg width="56" height="56" viewBox="0 0 56 56" fill="none" xmlns="http://www.w3.org/2000/svg">
<rect width="56" height="56" rx="14" fill="#1E1E1E" fill-opacity="0.6"/>
<rect x="0.25" y="0.25" width="55.5" height="55.5" rx="13.75" stroke="#1F2329" stroke-opacity="0.2" stroke-width="0.5"/>
<g filter="url(#filter1_d_66_289)">
<mask id="mask0_66_289" style="mask-type:alpha" maskUnits="userSpaceOnUse" x="7" y="8" width="42" height="40">
<path d="M48.5 48H7.5V8H48.5V48ZM28.0762 19.5098C27.8146 19.5099 27.5985 19.7147 27.5654 19.9775C27.4832 20.6317 27.3316 21.2643 27.1172 21.8662L26.8174 22.6016C25.9433 24.5012 24.4271 26.0365 22.5518 26.9219L21.8262 27.2256L21.5889 27.3086C21.0326 27.4937 20.4516 27.6238 19.8525 27.6934C19.6542 27.7164 19.5001 27.8838 19.5 28.0859C19.5 28.2882 19.6542 28.4554 19.8525 28.4785L20.1084 28.5127C20.7021 28.5996 21.277 28.7457 21.8262 28.9463L22.5518 29.25C24.4273 30.1354 25.9432 31.6716 26.8174 33.5713L27.1172 34.3057C27.3317 34.9077 27.4832 35.541 27.5654 36.1953L27.5859 36.29C27.6434 36.4748 27.7952 36.6167 27.9814 36.6533L28.0762 36.6621C28.3052 36.6621 28.4994 36.5055 28.5664 36.29L28.5869 36.1953C28.6691 35.541 28.8217 34.9077 29.0361 34.3057L29.335 33.5713C30.2091 31.6715 31.7261 30.1354 33.6016 29.25L34.3271 28.9463C34.9264 28.7275 35.5564 28.573 36.208 28.4902L36.2998 28.4785C36.4733 28.4584 36.6132 28.3278 36.6455 28.1602L36.6523 28.0859C36.6522 27.8838 36.4981 27.7164 36.2998 27.6934C35.7007 27.6238 35.1198 27.4937 34.5635 27.3086L34.3271 27.2256L33.6016 26.9219C31.7261 26.0365 30.2091 24.5013 29.335 22.6016L29.0361 21.8662C28.8217 21.2642 28.6691 20.6318 28.5869 19.9775C28.5538 19.7146 28.3379 19.5098 28.0762 19.5098Z" fill="#D9D9D9"/>
</mask>
<g mask="url(#mask0_66_289)">
<path d="M46.646 7.99976L42.2099 12.4358L37.7739 16.8719L28.9017 25.744V21.308L28.9017 16.8719V13.0273L31.1198 10.2178L34.0771 7.99976L37.7739 7.99976H42.0621L46.646 7.99976Z" fill="#0E42D2"/>
<path d="M34.077 18.3506C31.2187 18.3506 28.9016 16.0335 28.9016 13.1752C28.9016 10.3169 31.2187 7.99976 34.077 7.99976C36.9353 7.99976 39.2524 10.3169 39.2524 13.1752C39.2524 16.0335 36.9353 18.3506 34.077 18.3506Z" fill="#0E42D2"/>
<path d="M27.3316 25.8194C27.3316 25.8194 27.1941 13.9771 27.2098 13.535C27.2254 13.0928 27.2939 12.4358 27.2939 12.4358L26.7297 13.0377L20.6585 19.1464L27.3316 25.8194Z" fill="#165DFF"/>
<path d="M8.19995 9.47845L12.636 13.9145L17.0721 18.3506L25.9442 27.2227H21.5082H17.0721L13.2275 27.2227L10.418 25.0047L8.19995 22.0473L8.19995 18.3506L8.19995 14.0624L8.19995 9.47845Z" fill="#4080FF"/>
<path d="M18.5508 22.0473C18.5508 24.9056 16.2337 27.2227 13.3754 27.2227C10.5171 27.2227 8.19995 24.9056 8.19995 22.0473C8.19995 19.189 10.5171 16.8719 13.3754 16.8719C16.2337 16.8719 18.5508 19.189 18.5508 22.0473Z" fill="#4080FF"/>
<path d="M26.0195 28.7928C26.0195 28.7928 14.1772 28.9303 13.7351 28.9146C13.293 28.8989 12.636 28.8305 12.636 28.8305L13.2379 29.3947L19.3465 35.4658L26.0195 28.7928Z" fill="#6AA1FF"/>
<path d="M48.2 46.6527L43.7639 42.2166L39.3278 37.7806L30.4557 28.9084L34.8917 28.9084H39.3278H43.1724L45.9819 31.1265L48.2 34.0838L48.2 37.7806V42.0688V46.6527Z" fill="#E8F3FF"/>
<path d="M37.8491 34.0838C37.8491 31.2255 40.1662 28.9084 43.0245 28.9084C45.8828 28.9084 48.2 31.2255 48.2 34.0838C48.2 36.9421 45.8828 39.2592 43.0245 39.2592C40.1662 39.2592 37.8491 36.9421 37.8491 34.0838Z" fill="#E8F3FF"/>
<path d="M30.3804 27.3384C30.3804 27.3384 42.2227 27.201 42.6648 27.2166C43.1069 27.2323 43.7639 27.3007 43.7639 27.3007L43.1621 26.7365L37.0534 20.6654L30.3804 27.3384Z" fill="#C9CDD4"/>
<path d="M9.53076 47.9998L13.9668 43.5637L18.4029 39.1276L27.275 30.2555L27.275 34.6915V39.1276L27.275 42.9722L25.057 45.7817L22.0996 47.9998L18.4029 47.9998H14.1147H9.53076Z" fill="#94BFFF"/>
<path d="M22.0997 37.6489C24.958 37.6489 27.2751 39.966 27.2751 42.8243C27.2751 45.6826 24.958 47.9998 22.0997 47.9998C19.2414 47.9998 16.9243 45.6826 16.9243 42.8243C16.9243 39.966 19.2414 37.6489 22.0997 37.6489Z" fill="#94BFFF"/>
<path d="M28.845 30.1801C28.845 30.1801 28.9824 42.0224 28.9667 42.4646C28.9511 42.9067 28.8827 43.5637 28.8827 43.5637L29.4469 42.9618L35.518 36.8531L28.845 30.1801Z" fill="#BEDAFF"/>
</g>
</g>
<defs>
<filter id="filter1_d_66_289" x="4.19995" y="8" width="48" height="47.9998" filterUnits="userSpaceOnUse" color-interpolation-filters="sRGB">
<feFlood flood-opacity="0" result="BackgroundImageFix"/>
<feColorMatrix in="SourceAlpha" type="matrix" values="0 0 0 0 0 0 0 0 0 0 0 0 0 0 0 0 0 0 127 0" result="hardAlpha"/>
<feOffset dy="4"/>
<feGaussianBlur stdDeviation="2"/>
<feComposite in2="hardAlpha" operator="out"/>
<feColorMatrix type="matrix" values="0 0 0 0 0 0 0 0 0 0 0 0 0 0 0 0 0 0 0.25 0"/>
<feBlend mode="normal" in2="BackgroundImageFix" result="effect1_dropShadow_66_289"/>
<feBlend mode="normal" in="BackgroundImageFix" in2="effect1_dropShadow_66_289" result="BackgroundImageFix"/>
<feBlend mode="normal" in="SourceGraphic" in2="BackgroundImageFix" result="shape"/>
</filter>
</defs>
</svg>
