<svg width="150" height="145" viewBox="0 0 150 145" fill="none" xmlns="http://www.w3.org/2000/svg">
<path d="M126.196 0C141.934 8.60188 145.567 30.5668 135.28 45.2585C128.464 54.9931 106.556 75.9213 74.7541 72.9962C92.9306 47.0375 117.108 12.9794 126.196 0Z" fill="#D9D9D9"/>
<path d="M149.343 125.375C140.741 141.113 117.141 143.931 102.449 133.644C92.7148 126.828 71.7865 104.92 74.7116 73.1176C100.67 91.2942 136.364 116.287 149.343 125.375Z" fill="#D9D9D9"/>
<path d="M24.1958 145C8.45795 136.398 3.82533 115.496 14.1125 100.804C20.9287 91.0699 42.8365 70.1417 74.6387 73.0668C56.4622 99.0255 33.2841 132.021 24.1958 145Z" fill="#D9D9D9"/>
<path d="M0 20.6895C8.60188 4.95164 32.2021 2.13363 46.8938 12.4209C56.6283 19.2371 77.5566 41.1448 74.6315 72.947C48.6727 54.7705 12.9794 29.7778 0 20.6895Z" fill="#D9D9D9"/>
<path d="M74.607 61.5263C74.9578 61.5263 75.2472 61.8007 75.2915 62.1532C75.4018 63.0304 75.6056 63.8784 75.8931 64.6854L76.2945 65.6708C77.4663 68.2175 79.499 70.2759 82.0132 71.4628L82.9859 71.87L83.3033 71.9804C84.0492 72.2286 84.828 72.4037 85.6314 72.497C85.8973 72.5279 86.104 72.7522 86.104 73.0233L86.0943 73.1229C86.0509 73.3477 85.8639 73.5227 85.6314 73.5497L85.5074 73.5653C84.6336 73.6763 83.7894 73.8832 82.9859 74.1767L82.0132 74.5839C79.499 75.7708 77.4663 77.8292 76.2945 80.3759L75.8931 81.3612C75.6056 82.1683 75.4018 83.0163 75.2915 83.8935L75.2642 84.0214C75.1744 84.3102 74.9141 84.5204 74.607 84.5204L74.479 84.5077C74.2294 84.4586 74.0268 84.2691 73.9498 84.0214L73.9224 83.8935C73.8122 83.0163 73.6084 82.1683 73.3208 81.3612L72.9195 80.3759C71.7477 77.8292 69.7149 75.7708 67.2007 74.5839L66.2281 74.1767C65.4918 73.9078 64.7214 73.7111 63.9253 73.5946L63.5826 73.5497C63.3166 73.5188 63.1099 73.2945 63.1099 73.0233C63.1099 72.7522 63.3166 72.5279 63.5826 72.497C64.3859 72.4037 65.1647 72.2286 65.9107 71.9804L66.2281 71.87L67.2007 71.4628C69.7149 70.2759 71.7477 68.2175 72.9195 65.6708L73.3208 64.6854C73.6084 63.8784 73.8122 63.0304 73.9224 62.1532C73.9668 61.8007 74.2562 61.5263 74.607 61.5263Z" fill="#1456F0"/>
</svg>
