<?xml version="1.0" encoding="UTF-8"?>
<svg xmlns="http://www.w3.org/2000/svg" viewBox="0 0 320 320" width="320" height="320">
  <defs>
    <linearGradient id="bg-gradient" x1="0%" y1="0%" x2="100%" y2="100%">
      <stop offset="0%" stop-color="#A78BFA"/>
      <stop offset="100%" stop-color="#1456F0"/>
    </linearGradient>
  </defs>
  <rect id="Backdrop" x="0" y="0" width="320" height="320" fill="url(#bg-gradient)"/>
  <!-- A complex illustration: blobby cloud, two curved leaves, a moon. -->
  <path id="Cloud" d="M40 200 Q40 160 80 160 Q90 130 130 130 Q160 110 200 130 Q240 130 240 170 Q260 190 240 220 Q200 240 160 230 Q100 240 80 220 Q40 220 40 200 Z" fill="#FFFFFF" opacity="0.9"/>
  <path id="Leaf_1" d="M260 60 C 280 80, 290 110, 270 140 C 250 110, 250 80, 260 60 Z" fill="#16A34A"/>
  <path id="Leaf_2" d="M40 60 C 60 80, 70 110, 50 140 C 30 110, 30 80, 40 60 Z" fill="#16A34A"/>
  <circle id="Moon_Outer" cx="240" cy="80" r="28" fill="#FBBF24"/>
  <circle id="Moon_Inner" cx="232" cy="74" r="24" fill="url(#bg-gradient)"/>
  <text id="Caption" x="160" y="290" text-anchor="middle" font-family="Inter" font-size="14" font-weight="500" fill="#FFFFFF">Dream big</text>
</svg>
