<svg xmlns="http://www.w3.org/2000/svg" width="32" height="32" viewBox="0 0 32 32" fill="none">
  <defs>
    <linearGradient id="bg" x1="0" y1="0" x2="32" y2="32" gradientUnits="userSpaceOnUse">
      <stop offset="0" stop-color="#22C55E"/>
      <stop offset="0.5" stop-color="#0EA5E9"/>
      <stop offset="1" stop-color="#6366F1"/>
    </linearGradient>
  </defs>
  <rect width="32" height="32" rx="7" fill="url(#bg)"/>
  <!-- Stylised "F" + leaf: the letter doubles as a sprouting stem -->
  <path
    d="M10 7h12a1 1 0 010 2H13v4h7a1 1 0 010 2h-7v10a1 1 0 01-2 0V9h-1a1 1 0 010-2z"
    fill="rgba(255,255,255,0.95)"
  />
  <!-- Leaf / sprout on top-right of the F crossbar -->
  <path
    d="M22 6c0 0-3 1-4 4-.8 2.4 0 4 0 4s3-1 4-4c.8-2.4 0-4 0-4z"
    fill="rgba(255,255,255,0.7)"
  />
</svg>
